<svg width="80" height="81" viewBox="0 0 80 81" fill="none" xmlns="http://www.w3.org/2000/svg">
<g clip-path="url(#clip0)">
<path d="M80 40.5C80.0071 45.9825 78.9111 51.4089 76.7787 56.4484L76.6461 56.7575C73.0391 65.0659 66.7846 71.9097 58.8829 76.1944C50.9811 80.4791 41.8885 81.9573 33.0592 80.3925C32.8189 80.3494 32.5791 80.3046 32.3396 80.2583C29.8655 79.7727 27.4427 79.0493 25.1041 78.0979C24.7243 77.9433 24.3471 77.7832 23.9728 77.6174C23.7172 77.5048 23.4615 77.3885 23.2083 77.2687C16.2804 74.0177 10.4148 68.8292 6.30288 62.3147C2.19095 55.8002 0.00406705 48.2312 0 40.5C0 18.1327 17.9089 0 40 0C62.0911 0 80 18.1327 80 40.5Z" fill="#3E92CC"/>
<path d="M33.0592 80.3925C32.8189 80.3494 32.5791 80.3047 32.3397 80.2583C32.1834 75.6679 31.6473 66.2463 29.8189 56.3789C28.8189 50.9785 27.4308 45.4427 25.5053 40.494C24.8457 38.7817 24.0922 37.108 23.2485 35.4807C21.303 31.7602 18.9432 28.628 16.0817 26.506L16.503 25.9236C18.8828 27.6898 21.0217 30.1693 22.9195 33.3622C23.4888 34.3184 24.0355 35.3385 24.5598 36.4225C25.1219 37.5823 25.658 38.8137 26.1681 40.1166C26.4935 40.9458 26.8079 41.8037 27.1113 42.6904C28.432 46.5403 29.5546 50.933 30.4793 55.8685C30.684 56.9588 30.8789 58.076 31.0639 59.2199C32.497 68.0832 32.929 76.2778 33.0592 80.3925Z" fill="#D8315B"/>
<path d="M23.9728 77.6174C23.7172 77.5048 23.4616 77.3885 23.2083 77.2687C22.961 74.5488 22.5065 71.1746 21.6758 67.9717C21.3119 66.5332 20.8448 65.1235 20.2781 63.754C19.3302 61.5073 18.103 59.5973 16.516 58.4195L16.9373 57.8383C18.5988 59.0701 19.8805 61.0172 20.871 63.295C21.987 65.8616 22.7314 68.8488 23.2272 71.703C23.5953 73.8226 23.8272 75.8704 23.9728 77.6174Z" fill="#D8315B"/>
<path d="M12.102 26.4892C14.0685 26.4892 15.6628 24.875 15.6628 22.8839C15.6628 20.8927 14.0685 19.2786 12.102 19.2786C10.1354 19.2786 8.5412 20.8927 8.5412 22.8839C8.5412 24.875 10.1354 26.4892 12.102 26.4892Z" fill="#D8315B"/>
<path d="M13.2487 57.5243C15.2153 57.5243 16.8095 55.9102 16.8095 53.919C16.8095 51.9279 15.2153 50.3137 13.2487 50.3137C11.2821 50.3137 9.68793 51.9279 9.68793 53.919C9.68793 55.9102 11.2821 57.5243 13.2487 57.5243Z" fill="#D8315B"/>
<path opacity="0.2" d="M26.2384 28.9397C25.4833 33.253 27.1502 37.1586 27.1502 37.1586C27.1502 37.1586 30.0413 34.071 30.7964 29.7577C31.5514 25.4444 29.8846 21.5388 29.8846 21.5388C29.8846 21.5388 26.9935 24.6264 26.2384 28.9397Z" fill="black"/>
<path d="M14.4045 39.1785C18.4678 40.6829 22.5508 39.7175 22.5508 39.7175C22.5508 39.7175 20.046 36.313 15.9827 34.8086C11.9194 33.3042 7.8363 34.2696 7.8363 34.2696C7.8363 34.2696 10.3412 37.6741 14.4045 39.1785Z" fill="#D8315B"/>
<path d="M13.7154 66.6612C16.5635 67.7157 19.4294 67.0278 19.4294 67.0278C19.4294 67.0278 17.6778 64.6303 14.8297 63.5759C11.9817 62.5214 9.11572 63.2093 9.11572 63.2093C9.11572 63.2093 10.8674 65.6068 13.7154 66.6612Z" fill="#D8315B"/>
<path d="M39.9179 49.4686C48.5303 49.4686 55.512 42.3996 55.512 33.6796C55.512 24.9595 48.5303 17.8905 39.9179 17.8905C31.3055 17.8905 24.3238 24.9595 24.3238 33.6796C24.3238 42.3996 31.3055 49.4686 39.9179 49.4686Z" fill="#FFFAFF"/>
<path d="M33.8264 45.768C33.8264 45.768 35.7757 55.1428 35.7757 56.1296C35.7757 57.1164 45.0347 61.557 45.0347 61.557L53.319 60.0768L56.2429 51.1955C56.2429 51.1955 51.3698 43.7944 51.3698 40.834L33.8264 45.768Z" fill="#FFFAFF"/>
<path d="M76.7787 56.4484L76.6461 56.7575C73.0391 65.0659 66.7846 71.9097 58.8829 76.1944C50.9811 80.4791 41.8885 81.9573 33.0592 80.3925C32.8189 80.3494 32.5791 80.3046 32.3396 80.2583C29.8655 79.7727 27.4427 79.0493 25.1041 78.0979C24.7242 77.9433 24.3471 77.7832 23.9728 77.6174C23.7171 77.5048 23.4615 77.3885 23.2083 77.2687C20.9127 76.192 18.7234 74.8969 16.6698 73.4009L14.8213 67.9717L15.8603 67.1689L17.9976 65.5165L20.2781 63.754L20.871 63.295L29.8189 56.3789L30.4793 55.8685L35.1302 52.2738L35.1313 52.2726C35.1313 52.2726 40.1609 60.5703 47.471 58.1031C54.781 55.636 54.6213 48.5617 54.6213 48.5617L76.7787 56.4484Z" fill="#1E1B18"/>
<path d="M26.3947 20.9589C26.3947 20.9589 31.3458 10.0975 40.8354 12.6039C50.3249 15.1104 55.6886 18.8701 56.1012 22.6299C56.5137 26.3896 55.8949 32.0292 55.8949 32.0292C55.8949 32.0292 54.8634 24.3008 48.262 25.9718C41.6605 27.6428 31.3458 26.3896 31.3458 26.3896L29.6954 41.4284C29.6954 41.4284 27.8388 38.7131 25.7759 40.3841C23.7129 42.0551 19.7933 24.3008 26.3947 20.9589Z" fill="#1E1B18"/>
<path d="M25.1041 78.0979C24.7242 77.9433 24.3471 77.7832 23.9728 77.6174C23.7171 77.5048 23.4615 77.3886 23.2083 77.2687C19.4117 75.4862 15.9142 73.113 12.8426 70.2352C13.9302 68.735 14.8213 67.9717 14.8213 67.9717H22.1313L23.2272 71.703L25.1041 78.0979Z" fill="#2F2E41"/>
<path d="M70.3752 55.636L76.6462 56.7575C74.968 60.6284 72.7015 64.2093 69.929 67.3702L70.3752 55.636Z" fill="#2F2E41"/>
</g>
<defs>
<clipPath id="clip0">
<rect width="80" height="81" fill="white"/>
</clipPath>
</defs>
</svg>
